<svg width="512" height="512" viewBox="0 0 512 512" xmlns="http://www.w3.org/2000/svg">
  <defs>
    <clipPath id="tile"><rect x="16" y="16" width="480" height="480" rx="116"/></clipPath>
    <!-- union of all strand silhouettes: the rope-twist ribbing is clipped to
         this so the diagonal helix only paints on the fibers, never the black. -->
    <clipPath id="cord"><path d="M 252.00 524.00 L 251.74 518.31 L 251.48 512.49 L 251.22 506.55 L 250.96 500.52 L 250.70 494.40 L 250.44 488.21 L 250.19 481.95 L 249.93 475.66 L 249.67 469.33 L 249.42 462.98 L 249.16 456.62 L 248.91 450.28 L 248.65 443.95 L 248.40 437.67 L 248.14 431.43 L 247.89 425.25 L 247.64 419.15 L 247.39 413.14 L 247.13 407.23 L 246.88 401.44 L 246.63 395.78 L 246.38 390.27 L 246.13 384.91 L 245.88 379.72 L 245.64 374.72 L 245.39 369.91 L 245.14 365.32 L 244.90 360.95 L 244.65 356.82 L 244.41 352.94 L 244.16 349.33 L 243.15 341.43 L 241.25 336.88 L 239.23 332.31 L 237.09 327.73 L 234.84 323.14 L 232.48 318.52 L 230.01 313.89 L 227.43 309.25 L 224.75 304.60 L 221.97 299.93 L 219.09 295.25 L 216.12 290.57 L 213.06 285.87 L 209.91 281.17 L 206.68 276.47 L 203.36 271.76 L 199.96 267.05 L 196.49 262.35 L 192.94 257.64 L 189.33 252.94 L 185.64 248.25 L 181.89 243.57 L 178.07 238.90 L 174.20 234.24 L 170.27 229.60 L 166.29 224.98 L 162.25 220.38 L 158.17 215.80 L 154.04 211.24 L 149.86 206.71 L 145.65 202.21 L 141.40 197.74 L 137.19 193.39 L 135.60 191.87 L 134.06 190.38 L 132.57 188.92 L 131.13 187.49 L 129.73 186.09 L 128.38 184.72 L 127.08 183.37 L 125.82 182.04 L 124.60 180.72 L 123.43 179.43 L 122.30 178.15 L 121.21 176.89 L 120.16 175.64 L 119.14 174.40 L 118.17 173.16 L 117.24 171.93 L 116.34 170.70 L 115.48 169.48 L 114.65 168.25 L 113.86 167.02 L 113.11 165.79 L 112.38 164.54 L 111.69 163.29 L 111.03 162.03 L 110.41 160.75 L 109.81 159.46 L 109.25 158.15 L 108.71 156.82 L 108.21 155.47 L 107.74 154.10 L 107.31 152.70 L 106.91 151.27 L 103.27 149.09 L 101.09 152.73 L 101.47 154.28 L 101.85 155.81 L 102.26 157.33 L 102.68 158.84 L 103.12 160.34 L 103.59 161.83 L 104.08 163.31 L 104.59 164.78 L 105.14 166.25 L 105.71 167.72 L 106.30 169.19 L 106.93 170.66 L 107.59 172.13 L 108.28 173.60 L 109.01 175.08 L 109.76 176.57 L 110.55 178.07 L 111.37 179.57 L 112.23 181.09 L 113.12 182.62 L 114.05 184.16 L 115.02 185.72 L 116.02 187.30 L 117.06 188.90 L 118.14 190.52 L 119.25 192.17 L 120.41 193.84 L 121.61 195.53 L 122.84 197.25 L 124.12 199.01 L 125.44 200.79 L 126.81 202.61 L 130.81 207.29 L 134.70 211.92 L 138.54 216.58 L 142.34 221.27 L 146.08 225.98 L 149.77 230.70 L 153.41 235.45 L 156.98 240.21 L 160.49 244.98 L 163.93 249.76 L 167.31 254.55 L 170.61 259.33 L 173.84 264.12 L 176.99 268.90 L 180.05 273.68 L 183.04 278.45 L 185.93 283.20 L 188.74 287.94 L 191.45 292.66 L 194.06 297.36 L 196.58 302.03 L 198.99 306.67 L 201.30 311.27 L 203.50 315.84 L 205.59 320.37 L 207.56 324.85 L 209.42 329.29 L 211.16 333.67 L 212.77 337.99 L 214.26 342.25 L 215.62 346.45 L 216.85 350.57 L 215.84 349.33 L 215.59 352.94 L 215.35 356.82 L 215.10 360.95 L 214.86 365.32 L 214.61 369.91 L 214.36 374.72 L 214.12 379.72 L 213.87 384.91 L 213.62 390.27 L 213.37 395.78 L 213.12 401.44 L 212.87 407.23 L 212.61 413.14 L 212.36 419.15 L 212.11 425.25 L 211.86 431.43 L 211.60 437.67 L 211.35 443.95 L 211.09 450.28 L 210.84 456.62 L 210.58 462.98 L 210.33 469.33 L 210.07 475.66 L 209.81 481.95 L 209.56 488.21 L 209.30 494.40 L 209.04 500.52 L 208.78 506.55 L 208.52 512.49 L 208.26 518.31 L 208.00 524.00 Z"/><path d="M 265.00 524.00 L 264.73 520.16 L 264.46 516.15 L 264.19 511.97 L 263.92 507.64 L 263.65 503.16 L 263.39 498.54 L 263.12 493.80 L 262.86 488.94 L 262.59 483.96 L 262.33 478.89 L 262.07 473.72 L 261.81 468.47 L 261.55 463.14 L 261.29 457.75 L 261.03 452.31 L 260.77 446.81 L 260.52 441.28 L 260.26 435.72 L 260.01 430.14 L 259.76 424.55 L 259.51 418.96 L 259.26 413.37 L 259.01 407.80 L 258.76 402.25 L 258.51 396.74 L 258.27 391.27 L 258.02 385.85 L 257.78 380.49 L 257.54 375.20 L 257.30 370.00 L 257.06 364.88 L 256.82 359.85 L 256.58 354.93 L 256.35 350.13 L 256.12 345.45 L 255.88 340.91 L 255.65 336.50 L 255.43 332.25 L 255.20 328.16 L 254.97 324.23 L 254.75 320.49 L 254.53 316.93 L 254.31 313.56 L 254.09 310.40 L 253.88 307.46 L 253.66 304.74 L 253.45 302.25 L 253.19 299.05 L 252.52 294.73 L 251.82 290.38 L 251.07 286.01 L 250.30 281.60 L 249.48 277.17 L 248.64 272.72 L 247.76 268.24 L 246.84 263.74 L 245.90 259.22 L 244.93 254.68 L 243.92 250.13 L 242.88 245.56 L 241.82 240.97 L 240.72 236.37 L 239.60 231.76 L 238.45 227.14 L 237.27 222.51 L 236.06 217.87 L 234.83 213.23 L 233.58 208.59 L 232.30 203.94 L 230.99 199.29 L 229.66 194.64 L 228.31 189.99 L 226.94 185.35 L 225.54 180.71 L 224.12 176.07 L 222.69 171.45 L 221.23 166.83 L 219.75 162.23 L 218.25 157.64 L 216.74 153.06 L 215.21 148.50 L 213.66 143.95 L 212.09 139.43 L 210.51 134.92 L 208.92 130.44 L 207.31 125.97 L 205.68 121.54 L 204.04 117.13 L 202.40 112.74 L 200.73 108.39 L 199.06 104.06 L 197.38 99.77 L 195.69 95.51 L 194.00 91.29 L 192.29 87.10 L 190.59 82.94 L 186.94 81.41 L 185.41 85.06 L 187.07 89.20 L 188.70 93.38 L 190.31 97.60 L 191.90 101.86 L 193.46 106.16 L 195.01 110.50 L 196.53 114.86 L 198.03 119.26 L 199.51 123.69 L 200.96 128.15 L 202.39 132.63 L 203.80 137.14 L 205.18 141.67 L 206.54 146.22 L 207.88 150.80 L 209.19 155.38 L 210.47 159.99 L 211.73 164.61 L 212.96 169.24 L 214.16 173.88 L 215.33 178.53 L 216.48 183.18 L 217.60 187.84 L 218.69 192.51 L 219.75 197.18 L 220.78 201.84 L 221.78 206.51 L 222.74 211.17 L 223.68 215.83 L 224.58 220.48 L 225.45 225.12 L 226.29 229.75 L 227.10 234.37 L 227.87 238.97 L 228.60 243.56 L 229.30 248.13 L 229.97 252.68 L 230.60 257.21 L 231.19 261.72 L 231.75 266.20 L 232.27 270.66 L 232.75 275.09 L 233.19 279.48 L 233.59 283.85 L 233.96 288.18 L 234.28 292.47 L 234.56 296.73 L 234.81 300.95 L 234.55 302.25 L 234.34 304.74 L 234.12 307.46 L 233.91 310.40 L 233.69 313.56 L 233.47 316.93 L 233.25 320.49 L 233.03 324.23 L 232.80 328.16 L 232.57 332.25 L 232.35 336.50 L 232.12 340.91 L 231.88 345.45 L 231.65 350.13 L 231.42 354.93 L 231.18 359.85 L 230.94 364.88 L 230.70 370.00 L 230.46 375.20 L 230.22 380.49 L 229.98 385.85 L 229.73 391.27 L 229.49 396.74 L 229.24 402.25 L 228.99 407.80 L 228.74 413.37 L 228.49 418.96 L 228.24 424.55 L 227.99 430.14 L 227.74 435.72 L 227.48 441.28 L 227.23 446.81 L 226.97 452.31 L 226.71 457.75 L 226.45 463.14 L 226.19 468.47 L 225.93 473.72 L 225.67 478.89 L 225.41 483.96 L 225.14 488.94 L 224.88 493.80 L 224.61 498.54 L 224.35 503.16 L 224.08 507.64 L 223.81 511.97 L 223.54 516.15 L 223.27 520.16 L 223.00 524.00 Z"/><path d="M 281.00 524.00 L 280.68 520.14 L 280.36 516.08 L 280.04 511.81 L 279.73 507.36 L 279.41 502.73 L 279.10 497.94 L 278.79 492.99 L 278.48 487.90 L 278.17 482.67 L 277.86 477.32 L 277.55 471.85 L 277.25 466.28 L 276.95 460.62 L 276.65 454.88 L 276.35 449.06 L 276.05 443.19 L 275.75 437.26 L 275.46 431.29 L 275.17 425.30 L 274.87 419.28 L 274.59 413.26 L 274.30 407.24 L 274.01 401.23 L 273.73 395.25 L 273.44 389.30 L 273.16 383.39 L 272.89 377.54 L 272.61 371.76 L 272.33 366.05 L 272.06 360.43 L 271.79 354.90 L 271.52 349.48 L 271.25 344.18 L 270.99 339.01 L 270.72 333.98 L 270.46 329.09 L 270.20 324.37 L 269.95 319.82 L 269.69 315.45 L 269.44 311.27 L 269.19 307.29 L 268.94 303.53 L 268.70 299.99 L 268.46 296.68 L 268.22 293.62 L 267.98 290.81 L 267.75 288.27 L 267.51 286.12 L 267.34 281.23 L 267.17 276.35 L 266.99 271.48 L 266.81 266.61 L 266.62 261.75 L 266.44 256.90 L 266.25 252.05 L 266.06 247.22 L 265.87 242.39 L 265.68 237.57 L 265.50 232.76 L 265.31 227.95 L 265.13 223.16 L 264.95 218.38 L 264.78 213.60 L 264.61 208.83 L 264.44 204.08 L 264.28 199.33 L 264.13 194.59 L 263.98 189.86 L 263.84 185.14 L 263.72 180.43 L 263.60 175.74 L 263.48 171.05 L 263.38 166.37 L 263.30 161.71 L 263.22 157.05 L 263.15 152.41 L 263.10 147.78 L 263.06 143.15 L 263.04 138.55 L 263.03 133.95 L 263.04 129.36 L 263.07 124.79 L 263.11 120.23 L 263.17 115.69 L 263.24 111.15 L 263.34 106.63 L 263.46 102.13 L 263.60 97.63 L 263.76 93.15 L 263.94 88.69 L 264.15 84.24 L 264.38 79.80 L 264.64 75.39 L 264.93 70.98 L 265.24 66.59 L 265.59 62.22 L 263.22 59.41 L 260.41 61.78 L 260.03 66.17 L 259.65 70.58 L 259.29 75.00 L 258.94 79.44 L 258.59 83.89 L 258.26 88.36 L 257.94 92.84 L 257.63 97.33 L 257.33 101.84 L 257.04 106.36 L 256.76 110.89 L 256.49 115.44 L 256.23 120.00 L 255.97 124.57 L 255.73 129.16 L 255.49 133.75 L 255.25 138.36 L 255.03 142.99 L 254.80 147.62 L 254.59 152.26 L 254.38 156.92 L 254.17 161.59 L 253.97 166.26 L 253.77 170.95 L 253.57 175.65 L 253.37 180.36 L 253.18 185.07 L 252.98 189.80 L 252.79 194.54 L 252.60 199.28 L 252.40 204.04 L 252.21 208.80 L 252.01 213.57 L 251.81 218.34 L 251.61 223.13 L 251.41 227.92 L 251.20 232.72 L 250.99 237.52 L 250.77 242.34 L 250.54 247.15 L 250.31 251.98 L 250.08 256.81 L 249.83 261.64 L 249.58 266.48 L 249.32 271.32 L 249.05 276.17 L 248.77 281.02 L 248.49 285.88 L 248.25 288.27 L 248.02 290.81 L 247.78 293.62 L 247.54 296.68 L 247.30 299.99 L 247.06 303.53 L 246.81 307.29 L 246.56 311.27 L 246.31 315.45 L 246.05 319.82 L 245.80 324.37 L 245.54 329.09 L 245.28 333.98 L 245.01 339.01 L 244.75 344.18 L 244.48 349.48 L 244.21 354.90 L 243.94 360.43 L 243.67 366.05 L 243.39 371.76 L 243.11 377.54 L 242.84 383.39 L 242.56 389.30 L 242.27 395.25 L 241.99 401.23 L 241.70 407.24 L 241.41 413.26 L 241.13 419.28 L 240.83 425.30 L 240.54 431.29 L 240.25 437.26 L 239.95 443.19 L 239.65 449.06 L 239.35 454.88 L 239.05 460.62 L 238.75 466.28 L 238.45 471.85 L 238.14 477.32 L 237.83 482.67 L 237.52 487.90 L 237.21 492.99 L 236.90 497.94 L 236.59 502.73 L 236.27 507.36 L 235.96 511.81 L 235.64 516.08 L 235.32 520.14 L 235.00 524.00 Z"/><path d="M 293.00 524.00 L 292.75 520.18 L 292.51 516.23 L 292.26 512.15 L 292.02 507.95 L 291.77 503.64 L 291.53 499.23 L 291.28 494.72 L 291.04 490.12 L 290.80 485.44 L 290.56 480.68 L 290.31 475.85 L 290.07 470.97 L 289.83 466.03 L 289.59 461.04 L 289.35 456.02 L 289.11 450.96 L 288.87 445.88 L 288.63 440.79 L 288.39 435.68 L 288.16 430.57 L 287.92 425.46 L 287.68 420.37 L 287.45 415.30 L 287.21 410.25 L 286.98 405.24 L 286.74 400.26 L 286.51 395.34 L 286.28 390.47 L 286.04 385.67 L 285.81 380.93 L 285.58 376.28 L 285.35 371.70 L 285.12 367.22 L 284.90 362.84 L 284.67 358.57 L 284.44 354.41 L 284.22 350.37 L 284.00 346.46 L 283.77 342.68 L 283.55 339.05 L 283.33 335.56 L 283.11 332.24 L 282.90 329.08 L 282.68 326.09 L 282.47 323.28 L 282.25 320.66 L 282.04 318.23 L 281.13 319.65 L 282.19 316.45 L 283.29 313.19 L 284.41 309.88 L 285.57 306.52 L 286.76 303.11 L 287.97 299.65 L 289.21 296.14 L 290.48 292.59 L 291.77 289.00 L 293.08 285.36 L 294.41 281.69 L 295.76 277.97 L 297.13 274.22 L 298.52 270.43 L 299.92 266.60 L 301.34 262.74 L 302.77 258.85 L 304.21 254.92 L 305.66 250.97 L 307.13 246.98 L 308.60 242.97 L 310.07 238.93 L 311.55 234.87 L 313.04 230.78 L 314.53 226.67 L 316.02 222.54 L 317.51 218.39 L 319.01 214.22 L 320.50 210.04 L 321.98 205.83 L 323.46 201.62 L 324.94 197.39 L 326.41 193.14 L 327.87 188.89 L 329.32 184.62 L 330.76 180.35 L 332.19 176.07 L 333.61 171.78 L 335.01 167.49 L 336.40 163.19 L 337.77 158.89 L 339.13 154.59 L 340.47 150.30 L 341.79 146.00 L 343.09 141.70 L 344.37 137.41 L 345.63 133.12 L 346.88 128.85 L 344.85 125.12 L 341.12 127.15 L 339.84 131.38 L 338.51 135.61 L 337.14 139.83 L 335.74 144.06 L 334.31 148.29 L 332.84 152.51 L 331.34 156.72 L 329.82 160.94 L 328.27 165.14 L 326.70 169.34 L 325.10 173.53 L 323.49 177.71 L 321.85 181.88 L 320.20 186.04 L 318.53 190.19 L 316.84 194.32 L 315.14 198.43 L 313.43 202.53 L 311.70 206.61 L 309.97 210.68 L 308.22 214.72 L 306.47 218.74 L 304.72 222.74 L 302.96 226.72 L 301.20 230.67 L 299.43 234.60 L 297.67 238.50 L 295.90 242.37 L 294.14 246.21 L 292.38 250.02 L 290.63 253.81 L 288.88 257.56 L 287.15 261.27 L 285.42 264.96 L 283.70 268.60 L 281.99 272.22 L 280.29 275.79 L 278.61 279.33 L 276.95 282.82 L 275.30 286.28 L 273.67 289.69 L 272.06 293.06 L 270.47 296.39 L 268.90 299.67 L 267.36 302.91 L 265.83 306.11 L 264.34 309.25 L 262.87 312.35 L 261.96 318.23 L 261.75 320.66 L 261.53 323.28 L 261.32 326.09 L 261.10 329.08 L 260.89 332.24 L 260.67 335.56 L 260.45 339.05 L 260.23 342.68 L 260.00 346.46 L 259.78 350.37 L 259.56 354.41 L 259.33 358.57 L 259.10 362.84 L 258.88 367.22 L 258.65 371.70 L 258.42 376.28 L 258.19 380.93 L 257.96 385.67 L 257.72 390.47 L 257.49 395.34 L 257.26 400.26 L 257.02 405.24 L 256.79 410.25 L 256.55 415.30 L 256.32 420.37 L 256.08 425.46 L 255.84 430.57 L 255.61 435.68 L 255.37 440.79 L 255.13 445.88 L 254.89 450.96 L 254.65 456.02 L 254.41 461.04 L 254.17 466.03 L 253.93 470.97 L 253.69 475.85 L 253.44 480.68 L 253.20 485.44 L 252.96 490.12 L 252.72 494.72 L 252.47 499.23 L 252.23 503.64 L 251.98 507.95 L 251.74 512.15 L 251.49 516.23 L 251.25 520.18 L 251.00 524.00 Z"/><path d="M 307.00 524.00 L 306.77 518.27 L 306.54 512.33 L 306.31 506.21 L 306.09 499.92 L 305.86 493.48 L 305.63 486.91 L 305.40 480.24 L 305.18 473.47 L 304.95 466.63 L 304.72 459.73 L 304.50 452.80 L 304.27 445.85 L 304.04 438.90 L 303.82 431.97 L 303.59 425.08 L 303.36 418.25 L 303.14 411.49 L 302.91 404.83 L 302.69 398.29 L 302.46 391.87 L 302.24 385.61 L 302.01 379.51 L 301.79 373.61 L 301.56 367.91 L 301.34 362.43 L 301.11 357.20 L 300.89 352.24 L 300.67 347.55 L 300.45 343.17 L 300.22 339.10 L 300.00 335.37 L 296.70 340.69 L 298.96 337.56 L 301.30 334.37 L 303.72 331.10 L 306.19 327.77 L 308.73 324.37 L 311.33 320.90 L 313.97 317.37 L 316.66 313.78 L 319.39 310.12 L 322.16 306.40 L 324.95 302.62 L 327.77 298.77 L 330.62 294.86 L 333.48 290.89 L 336.35 286.86 L 339.23 282.77 L 342.11 278.62 L 344.99 274.41 L 347.86 270.13 L 350.72 265.80 L 353.56 261.41 L 356.39 256.96 L 359.19 252.45 L 361.95 247.88 L 364.69 243.25 L 367.38 238.57 L 370.03 233.82 L 372.64 229.02 L 375.19 224.16 L 377.68 219.25 L 380.11 214.27 L 382.48 209.24 L 383.45 206.86 L 384.38 204.51 L 385.27 202.20 L 386.11 199.92 L 386.90 197.67 L 387.65 195.45 L 388.36 193.26 L 389.01 191.09 L 389.63 188.96 L 390.19 186.85 L 390.71 184.77 L 391.18 182.71 L 391.61 180.67 L 391.99 178.66 L 392.33 176.67 L 392.62 174.70 L 392.86 172.75 L 393.06 170.82 L 393.21 168.90 L 393.31 167.01 L 393.37 165.13 L 393.38 163.27 L 393.35 161.43 L 393.27 159.59 L 393.15 157.77 L 392.98 155.97 L 392.77 154.17 L 392.52 152.39 L 392.23 150.61 L 391.90 148.84 L 391.52 147.07 L 391.12 145.31 L 387.31 142.88 L 384.88 146.69 L 385.18 148.30 L 385.42 149.92 L 385.60 151.53 L 385.73 153.14 L 385.80 154.75 L 385.83 156.36 L 385.80 157.98 L 385.73 159.59 L 385.61 161.22 L 385.43 162.84 L 385.21 164.48 L 384.94 166.12 L 384.62 167.77 L 384.26 169.44 L 383.84 171.11 L 383.38 172.80 L 382.88 174.51 L 382.32 176.23 L 381.72 177.97 L 381.07 179.72 L 380.37 181.50 L 379.62 183.30 L 378.83 185.12 L 377.99 186.97 L 377.10 188.84 L 376.16 190.74 L 375.17 192.67 L 374.14 194.62 L 373.06 196.61 L 371.93 198.63 L 370.75 200.68 L 369.52 202.76 L 366.94 207.42 L 364.30 212.02 L 361.59 216.56 L 358.83 221.04 L 356.02 225.46 L 353.15 229.82 L 350.24 234.12 L 347.30 238.37 L 344.31 242.55 L 341.30 246.68 L 338.25 250.75 L 335.19 254.76 L 332.10 258.71 L 329.00 262.61 L 325.89 266.45 L 322.77 270.23 L 319.65 273.96 L 316.53 277.62 L 313.42 281.24 L 310.32 284.79 L 307.23 288.29 L 304.16 291.74 L 301.11 295.13 L 298.09 298.47 L 295.10 301.75 L 292.14 304.99 L 289.22 308.17 L 286.34 311.29 L 283.50 314.37 L 280.72 317.40 L 277.98 320.38 L 275.30 323.31 L 272.00 335.37 L 271.78 339.10 L 271.55 343.17 L 271.33 347.55 L 271.11 352.24 L 270.89 357.20 L 270.66 362.43 L 270.44 367.91 L 270.21 373.61 L 269.99 379.51 L 269.76 385.61 L 269.54 391.87 L 269.31 398.29 L 269.09 404.83 L 268.86 411.49 L 268.64 418.25 L 268.41 425.08 L 268.18 431.97 L 267.96 438.90 L 267.73 445.85 L 267.50 452.80 L 267.28 459.73 L 267.05 466.63 L 266.82 473.47 L 266.60 480.24 L 266.37 486.91 L 266.14 493.48 L 265.91 499.92 L 265.69 506.21 L 265.46 512.33 L 265.23 518.27 L 265.00 524.00 Z"/></clipPath>
    <!-- vertical band that confines the twist to the intact base cord (below the
         point where the bundle frays apart). -->
    <clipPath id="lowerband"><rect x="176" y="320" width="168" height="248"/></clipPath>
    <linearGradient id="bg" x1="0" y1="0" x2="0" y2="1">
      <stop offset="0" stop-color="#17181d"/>
      <stop offset="1" stop-color="#0d0e10"/>
    </linearGradient>
    <radialGradient id="glow" cx="0.5" cy="0.42" r="0.5">
      <stop offset="0" stop-color="#e8b923" stop-opacity="0.10"/>
      <stop offset="1" stop-color="#e8b923" stop-opacity="0"/>
    </radialGradient>
    <!-- per-strand vertical shading: top-lit, slightly warmer/brighter up top -->
    <linearGradient id="sA" x1="0" y1="0" x2="0" y2="1">
      <stop offset="0" stop-color="#f2c94a"/><stop offset="1" stop-color="#c99616"/></linearGradient>
    <linearGradient id="sB" x1="0" y1="0" x2="0" y2="1">
      <stop offset="0" stop-color="#f6d05a"/><stop offset="1" stop-color="#d6a41c"/></linearGradient>
    <linearGradient id="sC" x1="0" y1="0" x2="0" y2="1">
      <stop offset="0" stop-color="#f8d968"/><stop offset="1" stop-color="#e0ac1e"/></linearGradient>
    <linearGradient id="sD" x1="0" y1="0" x2="0" y2="1">
      <stop offset="0" stop-color="#eec142"/><stop offset="1" stop-color="#c8941a"/></linearGradient>
    <linearGradient id="sD2" x1="0" y1="0" x2="0" y2="1">
      <stop offset="0" stop-color="#f4cd54"/><stop offset="1" stop-color="#d09c1e"/></linearGradient>
    <linearGradient id="sE" x1="0" y1="0" x2="0" y2="1">
      <stop offset="0" stop-color="#e6b524"/><stop offset="1" stop-color="#bd8b14"/></linearGradient>
  </defs>
  <rect x="16" y="16" width="480" height="480" rx="116" fill="url(#bg)"/>
       <rect x="16.5" y="16.5" width="479" height="479" rx="115.5" fill="none" stroke="#2b2e35" stroke-width="1"/>
  <circle cx="256" cy="216" r="200" fill="url(#glow)"/>
  <g transform="translate(0 0) scale(1)" clip-path="url(#tile)">
    <path d="M 252.00 524.00 L 251.74 518.31 L 251.48 512.49 L 251.22 506.55 L 250.96 500.52 L 250.70 494.40 L 250.44 488.21 L 250.19 481.95 L 249.93 475.66 L 249.67 469.33 L 249.42 462.98 L 249.16 456.62 L 248.91 450.28 L 248.65 443.95 L 248.40 437.67 L 248.14 431.43 L 247.89 425.25 L 247.64 419.15 L 247.39 413.14 L 247.13 407.23 L 246.88 401.44 L 246.63 395.78 L 246.38 390.27 L 246.13 384.91 L 245.88 379.72 L 245.64 374.72 L 245.39 369.91 L 245.14 365.32 L 244.90 360.95 L 244.65 356.82 L 244.41 352.94 L 244.16 349.33 L 243.15 341.43 L 241.25 336.88 L 239.23 332.31 L 237.09 327.73 L 234.84 323.14 L 232.48 318.52 L 230.01 313.89 L 227.43 309.25 L 224.75 304.60 L 221.97 299.93 L 219.09 295.25 L 216.12 290.57 L 213.06 285.87 L 209.91 281.17 L 206.68 276.47 L 203.36 271.76 L 199.96 267.05 L 196.49 262.35 L 192.94 257.64 L 189.33 252.94 L 185.64 248.25 L 181.89 243.57 L 178.07 238.90 L 174.20 234.24 L 170.27 229.60 L 166.29 224.98 L 162.25 220.38 L 158.17 215.80 L 154.04 211.24 L 149.86 206.71 L 145.65 202.21 L 141.40 197.74 L 137.19 193.39 L 135.60 191.87 L 134.06 190.38 L 132.57 188.92 L 131.13 187.49 L 129.73 186.09 L 128.38 184.72 L 127.08 183.37 L 125.82 182.04 L 124.60 180.72 L 123.43 179.43 L 122.30 178.15 L 121.21 176.89 L 120.16 175.64 L 119.14 174.40 L 118.17 173.16 L 117.24 171.93 L 116.34 170.70 L 115.48 169.48 L 114.65 168.25 L 113.86 167.02 L 113.11 165.79 L 112.38 164.54 L 111.69 163.29 L 111.03 162.03 L 110.41 160.75 L 109.81 159.46 L 109.25 158.15 L 108.71 156.82 L 108.21 155.47 L 107.74 154.10 L 107.31 152.70 L 106.91 151.27 L 103.27 149.09 L 101.09 152.73 L 101.47 154.28 L 101.85 155.81 L 102.26 157.33 L 102.68 158.84 L 103.12 160.34 L 103.59 161.83 L 104.08 163.31 L 104.59 164.78 L 105.14 166.25 L 105.71 167.72 L 106.30 169.19 L 106.93 170.66 L 107.59 172.13 L 108.28 173.60 L 109.01 175.08 L 109.76 176.57 L 110.55 178.07 L 111.37 179.57 L 112.23 181.09 L 113.12 182.62 L 114.05 184.16 L 115.02 185.72 L 116.02 187.30 L 117.06 188.90 L 118.14 190.52 L 119.25 192.17 L 120.41 193.84 L 121.61 195.53 L 122.84 197.25 L 124.12 199.01 L 125.44 200.79 L 126.81 202.61 L 130.81 207.29 L 134.70 211.92 L 138.54 216.58 L 142.34 221.27 L 146.08 225.98 L 149.77 230.70 L 153.41 235.45 L 156.98 240.21 L 160.49 244.98 L 163.93 249.76 L 167.31 254.55 L 170.61 259.33 L 173.84 264.12 L 176.99 268.90 L 180.05 273.68 L 183.04 278.45 L 185.93 283.20 L 188.74 287.94 L 191.45 292.66 L 194.06 297.36 L 196.58 302.03 L 198.99 306.67 L 201.30 311.27 L 203.50 315.84 L 205.59 320.37 L 207.56 324.85 L 209.42 329.29 L 211.16 333.67 L 212.77 337.99 L 214.26 342.25 L 215.62 346.45 L 216.85 350.57 L 215.84 349.33 L 215.59 352.94 L 215.35 356.82 L 215.10 360.95 L 214.86 365.32 L 214.61 369.91 L 214.36 374.72 L 214.12 379.72 L 213.87 384.91 L 213.62 390.27 L 213.37 395.78 L 213.12 401.44 L 212.87 407.23 L 212.61 413.14 L 212.36 419.15 L 212.11 425.25 L 211.86 431.43 L 211.60 437.67 L 211.35 443.95 L 211.09 450.28 L 210.84 456.62 L 210.58 462.98 L 210.33 469.33 L 210.07 475.66 L 209.81 481.95 L 209.56 488.21 L 209.30 494.40 L 209.04 500.52 L 208.78 506.55 L 208.52 512.49 L 208.26 518.31 L 208.00 524.00 Z" fill="url(#sA)"/>
    <path d="M 265.00 524.00 L 264.73 520.16 L 264.46 516.15 L 264.19 511.97 L 263.92 507.64 L 263.65 503.16 L 263.39 498.54 L 263.12 493.80 L 262.86 488.94 L 262.59 483.96 L 262.33 478.89 L 262.07 473.72 L 261.81 468.47 L 261.55 463.14 L 261.29 457.75 L 261.03 452.31 L 260.77 446.81 L 260.52 441.28 L 260.26 435.72 L 260.01 430.14 L 259.76 424.55 L 259.51 418.96 L 259.26 413.37 L 259.01 407.80 L 258.76 402.25 L 258.51 396.74 L 258.27 391.27 L 258.02 385.85 L 257.78 380.49 L 257.54 375.20 L 257.30 370.00 L 257.06 364.88 L 256.82 359.85 L 256.58 354.93 L 256.35 350.13 L 256.12 345.45 L 255.88 340.91 L 255.65 336.50 L 255.43 332.25 L 255.20 328.16 L 254.97 324.23 L 254.75 320.49 L 254.53 316.93 L 254.31 313.56 L 254.09 310.40 L 253.88 307.46 L 253.66 304.74 L 253.45 302.25 L 253.19 299.05 L 252.52 294.73 L 251.82 290.38 L 251.07 286.01 L 250.30 281.60 L 249.48 277.17 L 248.64 272.72 L 247.76 268.24 L 246.84 263.74 L 245.90 259.22 L 244.93 254.68 L 243.92 250.13 L 242.88 245.56 L 241.82 240.97 L 240.72 236.37 L 239.60 231.76 L 238.45 227.14 L 237.27 222.51 L 236.06 217.87 L 234.83 213.23 L 233.58 208.59 L 232.30 203.94 L 230.99 199.29 L 229.66 194.64 L 228.31 189.99 L 226.94 185.35 L 225.54 180.71 L 224.12 176.07 L 222.69 171.45 L 221.23 166.83 L 219.75 162.23 L 218.25 157.64 L 216.74 153.06 L 215.21 148.50 L 213.66 143.95 L 212.09 139.43 L 210.51 134.92 L 208.92 130.44 L 207.31 125.97 L 205.68 121.54 L 204.04 117.13 L 202.40 112.74 L 200.73 108.39 L 199.06 104.06 L 197.38 99.77 L 195.69 95.51 L 194.00 91.29 L 192.29 87.10 L 190.59 82.94 L 186.94 81.41 L 185.41 85.06 L 187.07 89.20 L 188.70 93.38 L 190.31 97.60 L 191.90 101.86 L 193.46 106.16 L 195.01 110.50 L 196.53 114.86 L 198.03 119.26 L 199.51 123.69 L 200.96 128.15 L 202.39 132.63 L 203.80 137.14 L 205.18 141.67 L 206.54 146.22 L 207.88 150.80 L 209.19 155.38 L 210.47 159.99 L 211.73 164.61 L 212.96 169.24 L 214.16 173.88 L 215.33 178.53 L 216.48 183.18 L 217.60 187.84 L 218.69 192.51 L 219.75 197.18 L 220.78 201.84 L 221.78 206.51 L 222.74 211.17 L 223.68 215.83 L 224.58 220.48 L 225.45 225.12 L 226.29 229.75 L 227.10 234.37 L 227.87 238.97 L 228.60 243.56 L 229.30 248.13 L 229.97 252.68 L 230.60 257.21 L 231.19 261.72 L 231.75 266.20 L 232.27 270.66 L 232.75 275.09 L 233.19 279.48 L 233.59 283.85 L 233.96 288.18 L 234.28 292.47 L 234.56 296.73 L 234.81 300.95 L 234.55 302.25 L 234.34 304.74 L 234.12 307.46 L 233.91 310.40 L 233.69 313.56 L 233.47 316.93 L 233.25 320.49 L 233.03 324.23 L 232.80 328.16 L 232.57 332.25 L 232.35 336.50 L 232.12 340.91 L 231.88 345.45 L 231.65 350.13 L 231.42 354.93 L 231.18 359.85 L 230.94 364.88 L 230.70 370.00 L 230.46 375.20 L 230.22 380.49 L 229.98 385.85 L 229.73 391.27 L 229.49 396.74 L 229.24 402.25 L 228.99 407.80 L 228.74 413.37 L 228.49 418.96 L 228.24 424.55 L 227.99 430.14 L 227.74 435.72 L 227.48 441.28 L 227.23 446.81 L 226.97 452.31 L 226.71 457.75 L 226.45 463.14 L 226.19 468.47 L 225.93 473.72 L 225.67 478.89 L 225.41 483.96 L 225.14 488.94 L 224.88 493.80 L 224.61 498.54 L 224.35 503.16 L 224.08 507.64 L 223.81 511.97 L 223.54 516.15 L 223.27 520.16 L 223.00 524.00 Z" fill="url(#sB)"/>
    <path d="M 281.00 524.00 L 280.68 520.14 L 280.36 516.08 L 280.04 511.81 L 279.73 507.36 L 279.41 502.73 L 279.10 497.94 L 278.79 492.99 L 278.48 487.90 L 278.17 482.67 L 277.86 477.32 L 277.55 471.85 L 277.25 466.28 L 276.95 460.62 L 276.65 454.88 L 276.35 449.06 L 276.05 443.19 L 275.75 437.26 L 275.46 431.29 L 275.17 425.30 L 274.87 419.28 L 274.59 413.26 L 274.30 407.24 L 274.01 401.23 L 273.73 395.25 L 273.44 389.30 L 273.16 383.39 L 272.89 377.54 L 272.61 371.76 L 272.33 366.05 L 272.06 360.43 L 271.79 354.90 L 271.52 349.48 L 271.25 344.18 L 270.99 339.01 L 270.72 333.98 L 270.46 329.09 L 270.20 324.37 L 269.95 319.82 L 269.69 315.45 L 269.44 311.27 L 269.19 307.29 L 268.94 303.53 L 268.70 299.99 L 268.46 296.68 L 268.22 293.62 L 267.98 290.81 L 267.75 288.27 L 267.51 286.12 L 267.34 281.23 L 267.17 276.35 L 266.99 271.48 L 266.81 266.61 L 266.62 261.75 L 266.44 256.90 L 266.25 252.05 L 266.06 247.22 L 265.87 242.39 L 265.68 237.57 L 265.50 232.76 L 265.31 227.95 L 265.13 223.16 L 264.95 218.38 L 264.78 213.60 L 264.61 208.83 L 264.44 204.08 L 264.28 199.33 L 264.13 194.59 L 263.98 189.86 L 263.84 185.14 L 263.72 180.43 L 263.60 175.74 L 263.48 171.05 L 263.38 166.37 L 263.30 161.71 L 263.22 157.05 L 263.15 152.41 L 263.10 147.78 L 263.06 143.15 L 263.04 138.55 L 263.03 133.95 L 263.04 129.36 L 263.07 124.79 L 263.11 120.23 L 263.17 115.69 L 263.24 111.15 L 263.34 106.63 L 263.46 102.13 L 263.60 97.63 L 263.76 93.15 L 263.94 88.69 L 264.15 84.24 L 264.38 79.80 L 264.64 75.39 L 264.93 70.98 L 265.24 66.59 L 265.59 62.22 L 263.22 59.41 L 260.41 61.78 L 260.03 66.17 L 259.65 70.58 L 259.29 75.00 L 258.94 79.44 L 258.59 83.89 L 258.26 88.36 L 257.94 92.84 L 257.63 97.33 L 257.33 101.84 L 257.04 106.36 L 256.76 110.89 L 256.49 115.44 L 256.23 120.00 L 255.97 124.57 L 255.73 129.16 L 255.49 133.75 L 255.25 138.36 L 255.03 142.99 L 254.80 147.62 L 254.59 152.26 L 254.38 156.92 L 254.17 161.59 L 253.97 166.26 L 253.77 170.95 L 253.57 175.65 L 253.37 180.36 L 253.18 185.07 L 252.98 189.80 L 252.79 194.54 L 252.60 199.28 L 252.40 204.04 L 252.21 208.80 L 252.01 213.57 L 251.81 218.34 L 251.61 223.13 L 251.41 227.92 L 251.20 232.72 L 250.99 237.52 L 250.77 242.34 L 250.54 247.15 L 250.31 251.98 L 250.08 256.81 L 249.83 261.64 L 249.58 266.48 L 249.32 271.32 L 249.05 276.17 L 248.77 281.02 L 248.49 285.88 L 248.25 288.27 L 248.02 290.81 L 247.78 293.62 L 247.54 296.68 L 247.30 299.99 L 247.06 303.53 L 246.81 307.29 L 246.56 311.27 L 246.31 315.45 L 246.05 319.82 L 245.80 324.37 L 245.54 329.09 L 245.28 333.98 L 245.01 339.01 L 244.75 344.18 L 244.48 349.48 L 244.21 354.90 L 243.94 360.43 L 243.67 366.05 L 243.39 371.76 L 243.11 377.54 L 242.84 383.39 L 242.56 389.30 L 242.27 395.25 L 241.99 401.23 L 241.70 407.24 L 241.41 413.26 L 241.13 419.28 L 240.83 425.30 L 240.54 431.29 L 240.25 437.26 L 239.95 443.19 L 239.65 449.06 L 239.35 454.88 L 239.05 460.62 L 238.75 466.28 L 238.45 471.85 L 238.14 477.32 L 237.83 482.67 L 237.52 487.90 L 237.21 492.99 L 236.90 497.94 L 236.59 502.73 L 236.27 507.36 L 235.96 511.81 L 235.64 516.08 L 235.32 520.14 L 235.00 524.00 Z" fill="url(#sC)"/>
    <path d="M 293.00 524.00 L 292.75 520.18 L 292.51 516.23 L 292.26 512.15 L 292.02 507.95 L 291.77 503.64 L 291.53 499.23 L 291.28 494.72 L 291.04 490.12 L 290.80 485.44 L 290.56 480.68 L 290.31 475.85 L 290.07 470.97 L 289.83 466.03 L 289.59 461.04 L 289.35 456.02 L 289.11 450.96 L 288.87 445.88 L 288.63 440.79 L 288.39 435.68 L 288.16 430.57 L 287.92 425.46 L 287.68 420.37 L 287.45 415.30 L 287.21 410.25 L 286.98 405.24 L 286.74 400.26 L 286.51 395.34 L 286.28 390.47 L 286.04 385.67 L 285.81 380.93 L 285.58 376.28 L 285.35 371.70 L 285.12 367.22 L 284.90 362.84 L 284.67 358.57 L 284.44 354.41 L 284.22 350.37 L 284.00 346.46 L 283.77 342.68 L 283.55 339.05 L 283.33 335.56 L 283.11 332.24 L 282.90 329.08 L 282.68 326.09 L 282.47 323.28 L 282.25 320.66 L 282.04 318.23 L 281.13 319.65 L 282.19 316.45 L 283.29 313.19 L 284.41 309.88 L 285.57 306.52 L 286.76 303.11 L 287.97 299.65 L 289.21 296.14 L 290.48 292.59 L 291.77 289.00 L 293.08 285.36 L 294.41 281.69 L 295.76 277.97 L 297.13 274.22 L 298.52 270.43 L 299.92 266.60 L 301.34 262.74 L 302.77 258.85 L 304.21 254.92 L 305.66 250.97 L 307.13 246.98 L 308.60 242.97 L 310.07 238.93 L 311.55 234.87 L 313.04 230.78 L 314.53 226.67 L 316.02 222.54 L 317.51 218.39 L 319.01 214.22 L 320.50 210.04 L 321.98 205.83 L 323.46 201.62 L 324.94 197.39 L 326.41 193.14 L 327.87 188.89 L 329.32 184.62 L 330.76 180.35 L 332.19 176.07 L 333.61 171.78 L 335.01 167.49 L 336.40 163.19 L 337.77 158.89 L 339.13 154.59 L 340.47 150.30 L 341.79 146.00 L 343.09 141.70 L 344.37 137.41 L 345.63 133.12 L 346.88 128.85 L 344.85 125.12 L 341.12 127.15 L 339.84 131.38 L 338.51 135.61 L 337.14 139.83 L 335.74 144.06 L 334.31 148.29 L 332.84 152.51 L 331.34 156.72 L 329.82 160.94 L 328.27 165.14 L 326.70 169.34 L 325.10 173.53 L 323.49 177.71 L 321.85 181.88 L 320.20 186.04 L 318.53 190.19 L 316.84 194.32 L 315.14 198.43 L 313.43 202.53 L 311.70 206.61 L 309.97 210.68 L 308.22 214.72 L 306.47 218.74 L 304.72 222.74 L 302.96 226.72 L 301.20 230.67 L 299.43 234.60 L 297.67 238.50 L 295.90 242.37 L 294.14 246.21 L 292.38 250.02 L 290.63 253.81 L 288.88 257.56 L 287.15 261.27 L 285.42 264.96 L 283.70 268.60 L 281.99 272.22 L 280.29 275.79 L 278.61 279.33 L 276.95 282.82 L 275.30 286.28 L 273.67 289.69 L 272.06 293.06 L 270.47 296.39 L 268.90 299.67 L 267.36 302.91 L 265.83 306.11 L 264.34 309.25 L 262.87 312.35 L 261.96 318.23 L 261.75 320.66 L 261.53 323.28 L 261.32 326.09 L 261.10 329.08 L 260.89 332.24 L 260.67 335.56 L 260.45 339.05 L 260.23 342.68 L 260.00 346.46 L 259.78 350.37 L 259.56 354.41 L 259.33 358.57 L 259.10 362.84 L 258.88 367.22 L 258.65 371.70 L 258.42 376.28 L 258.19 380.93 L 257.96 385.67 L 257.72 390.47 L 257.49 395.34 L 257.26 400.26 L 257.02 405.24 L 256.79 410.25 L 256.55 415.30 L 256.32 420.37 L 256.08 425.46 L 255.84 430.57 L 255.61 435.68 L 255.37 440.79 L 255.13 445.88 L 254.89 450.96 L 254.65 456.02 L 254.41 461.04 L 254.17 466.03 L 253.93 470.97 L 253.69 475.85 L 253.44 480.68 L 253.20 485.44 L 252.96 490.12 L 252.72 494.72 L 252.47 499.23 L 252.23 503.64 L 251.98 507.95 L 251.74 512.15 L 251.49 516.23 L 251.25 520.18 L 251.00 524.00 Z" fill="url(#sD)"/>
    <path d="M 307.00 524.00 L 306.77 518.27 L 306.54 512.33 L 306.31 506.21 L 306.09 499.92 L 305.86 493.48 L 305.63 486.91 L 305.40 480.24 L 305.18 473.47 L 304.95 466.63 L 304.72 459.73 L 304.50 452.80 L 304.27 445.85 L 304.04 438.90 L 303.82 431.97 L 303.59 425.08 L 303.36 418.25 L 303.14 411.49 L 302.91 404.83 L 302.69 398.29 L 302.46 391.87 L 302.24 385.61 L 302.01 379.51 L 301.79 373.61 L 301.56 367.91 L 301.34 362.43 L 301.11 357.20 L 300.89 352.24 L 300.67 347.55 L 300.45 343.17 L 300.22 339.10 L 300.00 335.37 L 296.70 340.69 L 298.96 337.56 L 301.30 334.37 L 303.72 331.10 L 306.19 327.77 L 308.73 324.37 L 311.33 320.90 L 313.97 317.37 L 316.66 313.78 L 319.39 310.12 L 322.16 306.40 L 324.95 302.62 L 327.77 298.77 L 330.62 294.86 L 333.48 290.89 L 336.35 286.86 L 339.23 282.77 L 342.11 278.62 L 344.99 274.41 L 347.86 270.13 L 350.72 265.80 L 353.56 261.41 L 356.39 256.96 L 359.19 252.45 L 361.95 247.88 L 364.69 243.25 L 367.38 238.57 L 370.03 233.82 L 372.64 229.02 L 375.19 224.16 L 377.68 219.25 L 380.11 214.27 L 382.48 209.24 L 383.45 206.86 L 384.38 204.51 L 385.27 202.20 L 386.11 199.92 L 386.90 197.67 L 387.65 195.45 L 388.36 193.26 L 389.01 191.09 L 389.63 188.96 L 390.19 186.85 L 390.71 184.77 L 391.18 182.71 L 391.61 180.67 L 391.99 178.66 L 392.33 176.67 L 392.62 174.70 L 392.86 172.75 L 393.06 170.82 L 393.21 168.90 L 393.31 167.01 L 393.37 165.13 L 393.38 163.27 L 393.35 161.43 L 393.27 159.59 L 393.15 157.77 L 392.98 155.97 L 392.77 154.17 L 392.52 152.39 L 392.23 150.61 L 391.90 148.84 L 391.52 147.07 L 391.12 145.31 L 387.31 142.88 L 384.88 146.69 L 385.18 148.30 L 385.42 149.92 L 385.60 151.53 L 385.73 153.14 L 385.80 154.75 L 385.83 156.36 L 385.80 157.98 L 385.73 159.59 L 385.61 161.22 L 385.43 162.84 L 385.21 164.48 L 384.94 166.12 L 384.62 167.77 L 384.26 169.44 L 383.84 171.11 L 383.38 172.80 L 382.88 174.51 L 382.32 176.23 L 381.72 177.97 L 381.07 179.72 L 380.37 181.50 L 379.62 183.30 L 378.83 185.12 L 377.99 186.97 L 377.10 188.84 L 376.16 190.74 L 375.17 192.67 L 374.14 194.62 L 373.06 196.61 L 371.93 198.63 L 370.75 200.68 L 369.52 202.76 L 366.94 207.42 L 364.30 212.02 L 361.59 216.56 L 358.83 221.04 L 356.02 225.46 L 353.15 229.82 L 350.24 234.12 L 347.30 238.37 L 344.31 242.55 L 341.30 246.68 L 338.25 250.75 L 335.19 254.76 L 332.10 258.71 L 329.00 262.61 L 325.89 266.45 L 322.77 270.23 L 319.65 273.96 L 316.53 277.62 L 313.42 281.24 L 310.32 284.79 L 307.23 288.29 L 304.16 291.74 L 301.11 295.13 L 298.09 298.47 L 295.10 301.75 L 292.14 304.99 L 289.22 308.17 L 286.34 311.29 L 283.50 314.37 L 280.72 317.40 L 277.98 320.38 L 275.30 323.31 L 272.00 335.37 L 271.78 339.10 L 271.55 343.17 L 271.33 347.55 L 271.11 352.24 L 270.89 357.20 L 270.66 362.43 L 270.44 367.91 L 270.21 373.61 L 269.99 379.51 L 269.76 385.61 L 269.54 391.87 L 269.31 398.29 L 269.09 404.83 L 268.86 411.49 L 268.64 418.25 L 268.41 425.08 L 268.18 431.97 L 267.96 438.90 L 267.73 445.85 L 267.50 452.80 L 267.28 459.73 L 267.05 466.63 L 266.82 473.47 L 266.60 480.24 L 266.37 486.91 L 266.14 493.48 L 265.91 499.92 L 265.69 506.21 L 265.46 512.33 L 265.23 518.27 L 265.00 524.00 Z" fill="url(#sE)"/>
    <g clip-path="url(#cord)" fill="none" stroke-linecap="round">
      <g clip-path="url(#lowerband)">
        <g stroke="#0a0b0d" stroke-opacity="0.44" stroke-width="7"><path d="M 176.0 588.0 Q 246.0 527.0 316.0 484.0"/><path d="M 176.0 548.0 Q 246.0 487.0 316.0 444.0"/><path d="M 176.0 508.0 Q 246.0 447.0 316.0 404.0"/><path d="M 176.0 468.0 Q 246.0 407.0 316.0 364.0"/><path d="M 176.0 428.0 Q 246.0 367.0 316.0 324.0"/><path d="M 176.0 388.0 Q 246.0 327.0 316.0 284.0"/><path d="M 176.0 348.0 Q 246.0 287.0 316.0 244.0"/><path d="M 176.0 308.0 Q 246.0 247.0 316.0 204.0"/></g>
        <g stroke="#fce28e" stroke-opacity="0.24" stroke-width="3"><path d="M 176.0 568.0 Q 246.0 507.0 316.0 464.0"/><path d="M 176.0 528.0 Q 246.0 467.0 316.0 424.0"/><path d="M 176.0 488.0 Q 246.0 427.0 316.0 384.0"/><path d="M 176.0 448.0 Q 246.0 387.0 316.0 344.0"/><path d="M 176.0 408.0 Q 246.0 347.0 316.0 304.0"/><path d="M 176.0 368.0 Q 246.0 307.0 316.0 264.0"/><path d="M 176.0 328.0 Q 246.0 267.0 316.0 224.0"/><path d="M 176.0 288.0 Q 246.0 227.0 316.0 184.0"/></g>
      </g>
    </g>
  </g>
</svg>
